<svg width="22" height="24" viewBox="0 0 22 24" fill="none" xmlns="http://www.w3.org/2000/svg">
<g clip-path="url(#clip0_123_6773)">
<path d="M15.701 8.64166C17.2468 9.74607 19.1405 10.3959 21.1857 10.3959V6.46237C20.7986 6.46253 20.4126 6.42214 20.0339 6.34188V9.43813C17.9888 9.43813 16.0954 8.78839 14.5493 7.68406V15.7113C14.5493 19.727 11.2922 22.9821 7.27481 22.9821C5.7758 22.9821 4.38248 22.5291 3.2251 21.7523C4.54609 23.1023 6.3883 23.9398 8.42631 23.9398C12.4441 23.9398 15.7012 20.6847 15.7012 16.6688V8.64166H15.701ZM17.122 4.67322C16.332 3.81062 15.8133 2.69586 15.701 1.46342V0.95752H14.6095C14.8843 2.52389 15.8215 3.8621 17.122 4.67322ZM5.76612 18.6708C5.32471 18.0925 5.08613 17.3849 5.08725 16.6573C5.08725 14.8207 6.57699 13.3316 8.41497 13.3316C8.75745 13.3314 9.09791 13.384 9.42438 13.4874V9.46593C9.04286 9.41371 8.65787 9.39145 8.27304 9.39964V12.5297C7.94641 12.4263 7.60578 12.3737 7.26314 12.374C5.42524 12.374 3.93558 13.863 3.93558 15.6998C3.93558 16.9986 4.68016 18.1231 5.76612 18.6708Z" fill="#FF004F"/>
<path d="M14.5493 7.68397C16.0955 8.78831 17.9888 9.43804 20.0339 9.43804V6.34179C18.8923 6.09873 17.8818 5.50254 17.122 4.67322C15.8214 3.86202 14.8843 2.52381 14.6096 0.95752H11.7426V16.6687C11.736 18.5003 10.2488 19.9833 8.41483 19.9833C7.33417 19.9833 6.37401 19.4685 5.76598 18.6708C4.68019 18.1231 3.93552 16.9985 3.93552 15.6999C3.93552 13.8632 5.42518 12.3741 7.26308 12.3741C7.61522 12.3741 7.95461 12.4289 8.27299 12.5298V9.39973C4.32606 9.48124 1.15186 12.7045 1.15186 16.6687C1.15186 18.6477 1.94228 20.4416 3.22521 21.7524C4.38259 22.5291 5.77583 22.9822 7.27492 22.9822C11.2924 22.9822 14.5494 19.7269 14.5494 15.7113L14.5493 7.68397Z" fill="black"/>
<path d="M20.0338 6.34179V5.50477C19.0044 5.50627 17.9953 5.21813 17.1218 4.6733C17.895 5.51927 18.913 6.10265 20.0338 6.34196M14.6094 0.957517C14.5832 0.807854 14.5631 0.657193 14.5491 0.505903V0H10.5905V15.7113C10.5842 17.5428 9.09699 19.0258 7.2629 19.0258C6.74295 19.0266 6.2301 18.905 5.76579 18.671C6.37382 19.4686 7.33399 19.9833 8.41465 19.9833C10.2486 19.9833 11.7359 18.5004 11.7424 16.6688V0.9576L14.6094 0.957517ZM8.27305 9.39972V8.5085C7.94225 8.46333 7.60876 8.44072 7.2749 8.4408C3.25697 8.4408 0 11.696 0 15.7113C0 18.2287 1.28003 20.4473 3.22519 21.7524C1.94226 20.4416 1.15183 18.6476 1.15183 16.6687C1.15183 12.7046 4.32596 9.48124 8.27305 9.39972Z" fill="#00F2EA"/>
</g>
<defs>
<clipPath id="clip0_123_6773">
<rect width="21.1862" height="24" fill="white"/>
</clipPath>
</defs>
</svg>
