<svg width="25" height="18" viewBox="0 0 25 18" fill="none" xmlns="http://www.w3.org/2000/svg">
<g clip-path="url(#clip0_123_6783)">
<path d="M23.656 3.19453C23.5183 2.6858 23.2498 2.22201 22.8771 1.84934C22.5045 1.47667 22.0407 1.20812 21.532 1.07044C19.6696 0.5625 12.1739 0.5625 12.1739 0.5625C12.1739 0.5625 4.6778 0.577875 2.81537 1.08581C2.30663 1.2235 1.84284 1.49206 1.47019 1.86475C1.09753 2.23744 0.829011 2.70125 0.691366 3.21C0.128022 6.51919 -0.0905094 11.5616 0.706834 14.7384C0.844494 15.2472 1.11302 15.711 1.48568 16.0836C1.85833 16.4563 2.32211 16.7248 2.83083 16.8625C4.69327 17.3705 12.1891 17.3705 12.1891 17.3705C12.1891 17.3705 19.6849 17.3705 21.5473 16.8625C22.056 16.7249 22.5198 16.4563 22.8925 16.0836C23.2652 15.711 23.5337 15.2472 23.6714 14.7384C24.2656 11.4246 24.4486 6.38522 23.656 3.19453Z" fill="#FF0000"/>
<path d="M9.78809 12.5681L16.0063 8.96643L9.78809 5.36475V12.5681Z" fill="white"/>
</g>
<defs>
<clipPath id="clip0_123_6783">
<rect width="24" height="16.875" fill="white" transform="translate(0.186035 0.5625)"/>
</clipPath>
</defs>
</svg>
