<svg width="48" height="48" viewBox="0 0 48 48" fill="none" xmlns="http://www.w3.org/2000/svg">
<rect x="0.5" y="0.5" width="47" height="47" rx="23.5" stroke="#E0E0E0"/>
<path d="M29.6569 28.2426L25.4142 24L29.6569 19.7574C29.8444 19.5698 29.9497 19.3155 29.9497 19.0503C29.9497 18.785 29.8444 18.5307 29.6569 18.3431C29.4693 18.1556 29.215 18.0503 28.9497 18.0503C28.6845 18.0503 28.4302 18.1556 28.2426 18.3431L24 22.5858L19.7574 18.3431C19.5698 18.1556 19.3155 18.0503 19.0503 18.0503C18.785 18.0503 18.5307 18.1556 18.3431 18.3431C18.1556 18.5307 18.0503 18.785 18.0503 19.0503C18.0503 19.3155 18.1556 19.5698 18.3431 19.7574L22.5858 24L18.3431 28.2426C18.1556 28.4302 18.0503 28.6845 18.0503 28.9498C18.0503 29.215 18.1556 29.4693 18.3431 29.6569C18.5307 29.8444 18.785 29.9498 19.0503 29.9498C19.3155 29.9498 19.5698 29.8444 19.7574 29.6569L24 25.4142L28.2426 29.6569C28.4302 29.8444 28.6845 29.9498 28.9497 29.9498C29.215 29.9498 29.4693 29.8444 29.6569 29.6569C29.8444 29.4693 29.9497 29.215 29.9497 28.9498C29.9497 28.6845 29.8444 28.4302 29.6569 28.2426Z" fill="#ED4F5D"/>
</svg>
