<svg width="25" height="24" viewBox="0 0 25 24" fill="none" xmlns="http://www.w3.org/2000/svg">
<path fill-rule="evenodd" clip-rule="evenodd" d="M19.9632 4.43C20.2103 4.32599 20.4808 4.29011 20.7465 4.32611C21.0122 4.36211 21.2633 4.46866 21.4739 4.63468C21.6844 4.8007 21.8466 5.02011 21.9435 5.27008C22.0405 5.52005 22.0687 5.79144 22.0252 6.056L19.7572 19.813C19.5372 21.14 18.0812 21.901 16.8642 21.24C15.8462 20.687 14.3342 19.835 12.9742 18.946C12.2942 18.501 10.2112 17.076 10.4672 16.062C10.6872 15.195 14.1872 11.937 16.1872 10C16.9722 9.239 16.6142 8.8 15.6872 9.5C13.3852 11.238 9.68918 13.881 8.46718 14.625C7.38918 15.281 6.82718 15.393 6.15518 15.281C4.92918 15.077 3.79218 14.761 2.86418 14.376C1.61018 13.856 1.67118 12.132 2.86318 11.63L19.9632 4.43Z" fill="#609CF5"/>
</svg>
