<svg width="48" height="48" viewBox="0 0 48 48" fill="none" xmlns="http://www.w3.org/2000/svg">
<rect width="48" height="48" rx="24" fill="#609CF5" fill-opacity="0.16"/>
<g clip-path="url(#clip0_28_3421)">
<path fill-rule="evenodd" clip-rule="evenodd" d="M32.8881 15.3485C33.1705 15.2297 33.4796 15.1887 33.7833 15.2298C34.0869 15.271 34.374 15.3927 34.6146 15.5825C34.8552 15.7722 35.0406 16.023 35.1514 16.3086C35.2622 16.5943 35.2944 16.9045 35.2447 17.2068L32.6527 32.9291C32.4012 34.4457 30.7372 35.3154 29.3464 34.56C28.1829 33.928 26.4549 32.9543 24.9007 31.9383C24.1235 31.4297 21.7429 29.8011 22.0355 28.6423C22.2869 27.6514 26.2869 23.928 28.5727 21.7143C29.4698 20.8445 29.0607 20.3428 28.0012 21.1428C25.3704 23.1291 21.1464 26.1497 19.7498 27C18.5178 27.7497 17.8755 27.8777 17.1075 27.7497C15.7064 27.5165 14.4069 27.1554 13.3464 26.7154C11.9132 26.1211 11.9829 24.1508 13.3452 23.5771L32.8881 15.3485Z" fill="#609CF5"/>
</g>
<defs>
<clipPath id="clip0_28_3421">
<rect width="27.4286" height="27.4286" fill="white" transform="translate(10.2858 10.2859)"/>
</clipPath>
</defs>
</svg>
