<svg width="25" height="18" viewBox="0 0 25 18" fill="none" xmlns="http://www.w3.org/2000/svg">
<g clip-path="url(#clip0_28_605)">
<path d="M23.6562 3.19453C23.5186 2.6858 23.25 2.22201 22.8774 1.84934C22.5047 1.47667 22.041 1.20812 21.5322 1.07044C19.6698 0.5625 12.1741 0.5625 12.1741 0.5625C12.1741 0.5625 4.67805 0.577875 2.81561 1.08581C2.30688 1.2235 1.84309 1.49206 1.47043 1.86475C1.09778 2.23744 0.829255 2.70125 0.69161 3.21C0.128266 6.51919 -0.0902652 11.5616 0.707079 14.7384C0.844738 15.2472 1.11327 15.711 1.48592 16.0836C1.85858 16.4563 2.32236 16.7248 2.83108 16.8625C4.69352 17.3705 12.1894 17.3705 12.1894 17.3705C12.1894 17.3705 19.6852 17.3705 21.5475 16.8625C22.0563 16.7249 22.5201 16.4563 22.8927 16.0836C23.2654 15.711 23.5339 15.2472 23.6716 14.7384C24.2658 11.4246 24.4489 6.38522 23.6562 3.19453Z" fill="#FF0000"/>
<path d="M9.78833 12.5681L16.0066 8.96643L9.78833 5.36475V12.5681Z" fill="white"/>
</g>
<defs>
<clipPath id="clip0_28_605">
<rect width="24" height="16.875" fill="white" transform="translate(0.186279 0.5625)"/>
</clipPath>
</defs>
</svg>
