<svg width="162" height="162" viewBox="0 0 162 162" fill="none" xmlns="http://www.w3.org/2000/svg">
<circle cx="81" cy="81" r="81" fill="#D82BCB" fill-opacity="0.1"/>
<circle cx="81" cy="81" r="71" fill="#D82BCB" fill-opacity="0.2"/>
<circle cx="81" cy="81" r="61" fill="#D82BCB"/>
<path opacity="0.5" d="M61 73V81C61 86.656 61 89.486 62.758 91.242C63.71 92.196 64.978 92.632 66.838 92.832C66.988 92.632 67.128 92.474 67.228 92.364C67.46 92.108 67.754 91.818 68.04 91.536L71.026 88.592L72.128 87.476C72.4875 85.3835 73.5751 83.4854 75.1985 82.1171C76.822 80.7488 78.8768 79.9983 81 79.9983C83.1232 79.9983 85.178 80.7488 86.8015 82.1171C88.4249 83.4854 89.5125 85.3835 89.872 87.476L90.974 88.592L93.96 91.536C94.246 91.818 94.54 92.108 94.772 92.364C94.872 92.474 95.012 92.632 95.16 92.832C97.022 92.632 98.29 92.196 99.242 91.242C101 89.486 101 86.656 101 81V73C101 67.344 101 64.514 99.242 62.758C97.486 61 94.656 61 89 61H73C67.344 61 64.514 61 62.758 62.758C61 64.514 61 67.344 61 73Z" fill="white"/>
<path d="M70.9999 74.5C70.6021 74.5 70.2206 74.658 69.9393 74.9393C69.658 75.2206 69.4999 75.6022 69.4999 76C69.4999 76.3978 69.658 76.7794 69.9393 77.0607C70.2206 77.342 70.6021 77.5 70.9999 77.5H90.9999C91.3977 77.5 91.7793 77.342 92.0606 77.0607C92.3419 76.7794 92.4999 76.3978 92.4999 76C92.4999 75.6022 92.3419 75.2206 92.0606 74.9393C91.7793 74.658 91.3977 74.5 90.9999 74.5H70.9999ZM73.4999 69C73.4999 68.6022 73.658 68.2206 73.9393 67.9393C74.2206 67.658 74.6021 67.5 74.9999 67.5H86.9999C87.3977 67.5 87.7793 67.658 88.0606 67.9393C88.3419 68.2206 88.4999 68.6022 88.4999 69C88.4999 69.3978 88.3419 69.7794 88.0606 70.0607C87.7793 70.342 87.3977 70.5 86.9999 70.5H74.9999C74.6021 70.5 74.2206 70.342 73.9393 70.0607C73.658 69.7794 73.4999 69.3978 73.4999 69ZM75.0019 88.834L74.9999 89C75.0027 90.5841 75.6319 92.1028 76.7502 93.2248C77.8684 94.3468 79.385 94.9811 80.9691 94.9892C82.5532 94.9973 84.0762 94.3787 85.206 93.2682C86.3357 92.1577 86.9804 90.6456 86.9995 89.0616C87.0186 87.4776 86.4105 85.9503 85.3078 84.8129C84.2052 83.6756 82.6975 83.0204 81.1137 82.9904C79.5299 82.9603 77.9984 83.5578 76.8535 84.6526C75.7085 85.7473 75.0429 87.2504 75.0019 88.834ZM72.3519 91.5L70.1919 93.63C69.5419 94.27 69.2179 94.59 69.1059 94.858C68.9787 95.1457 68.9614 95.4701 69.0572 95.7697C69.153 96.0694 69.3554 96.3235 69.6259 96.484C69.8699 96.626 70.3099 96.67 71.1919 96.76C71.6879 96.81 71.9379 96.834 72.1459 96.91C72.3742 96.9925 72.5819 97.1235 72.7545 97.2941C72.9272 97.4647 73.0607 97.6707 73.1459 97.898C73.2239 98.104 73.2499 98.348 73.2999 98.838C73.3899 99.708 73.4359 100.142 73.5799 100.384C73.748 100.652 74.0067 100.851 74.309 100.945C74.6114 101.039 74.9374 101.022 75.2279 100.896C75.5019 100.784 75.8279 100.466 76.4739 99.826L78.6339 97.686C77.1447 97.2786 75.785 96.4957 74.685 95.4122C73.5851 94.3287 72.7817 92.9829 72.3519 91.5ZM83.3659 97.686L85.5259 99.826C86.1739 100.466 86.4979 100.786 86.7719 100.896C87.3979 101.148 88.0919 100.932 88.4199 100.384C88.5639 100.144 88.6099 99.708 88.6999 98.84C88.7499 98.348 88.7759 98.104 88.8539 97.9C88.939 97.6724 89.0725 97.466 89.2451 97.2951C89.4178 97.1242 89.6255 96.9928 89.8539 96.91C90.0639 96.834 90.3119 96.81 90.8079 96.76C91.6879 96.67 92.1299 96.626 92.3739 96.484C92.644 96.3235 92.846 96.0698 92.9418 95.7706C93.0376 95.4714 93.0206 95.1475 92.8939 94.86C92.7819 94.588 92.4579 94.268 91.8099 93.63L89.6499 91.498C89.2199 92.9812 88.4163 94.3291 87.316 95.4126C86.2157 96.4961 84.8555 97.2789 83.3659 97.686Z" fill="white"/>
</svg>
