<svg width="162" height="162" viewBox="0 0 162 162" fill="none" xmlns="http://www.w3.org/2000/svg">
<circle cx="81" cy="81" r="81" fill="#0EA4E4" fill-opacity="0.1"/>
<circle cx="81" cy="81" r="71" fill="#0EA4E4" fill-opacity="0.2"/>
<circle cx="81" cy="81" r="61" fill="#0EA4E4"/>
<path d="M63.586 75.586C63 76.172 63 77.114 63 79V91C63 92.886 63 93.828 63.586 94.414C64.172 95 65.114 95 67 95C68.886 95 69.828 95 70.414 94.414C71 93.828 71 92.886 71 91V79C71 77.114 71 76.172 70.414 75.586C69.828 75 68.886 75 67 75C65.114 75 64.172 75 63.586 75.586Z" fill="white"/>
<path opacity="0.4" d="M91.586 61.586C91 62.172 91 63.114 91 65V91C91 92.886 91 93.828 91.586 94.414C92.172 95 93.114 95 95 95C96.886 95 97.828 95 98.414 94.414C99 93.828 99 92.886 99 91V65C99 63.114 99 62.172 98.414 61.586C97.828 61 96.886 61 95 61C93.114 61 92.172 61 91.586 61.586Z" fill="white"/>
<path opacity="0.7" d="M77 71C77 69.114 77 68.172 77.586 67.586C78.172 67 79.114 67 81 67C82.886 67 83.828 67 84.414 67.586C85 68.172 85 69.114 85 71V91C85 92.886 85 93.828 84.414 94.414C83.828 95 82.886 95 81 95C79.114 95 78.172 95 77.586 94.414C77 93.828 77 92.886 77 91V71Z" fill="white"/>
<path d="M63 99.5C62.6022 99.5 62.2206 99.658 61.9393 99.9393C61.658 100.221 61.5 100.602 61.5 101C61.5 101.398 61.658 101.779 61.9393 102.061C62.2206 102.342 62.6022 102.5 63 102.5H99C99.3978 102.5 99.7794 102.342 100.061 102.061C100.342 101.779 100.5 101.398 100.5 101C100.5 100.602 100.342 100.221 100.061 99.9393C99.7794 99.658 99.3978 99.5 99 99.5H63Z" fill="white"/>
</svg>
