<svg width="162" height="162" viewBox="0 0 162 162" fill="none" xmlns="http://www.w3.org/2000/svg">
<circle cx="81" cy="81" r="81" fill="#FFD600" fill-opacity="0.1"/>
<circle cx="81" cy="81" r="71" fill="#FFD600" fill-opacity="0.2"/>
<circle cx="81" cy="81" r="61" fill="#FFD600"/>
<path opacity="0.5" d="M61 89C61 83.344 61 80.514 62.758 78.758C64.514 77 67.344 77 73 77H89C94.656 77 97.486 77 99.242 78.758C101 80.514 101 83.344 101 89C101 94.656 101 97.486 99.242 99.242C97.486 101 94.656 101 89 101H73C67.344 101 64.514 101 62.758 99.242C61 97.486 61 94.656 61 89Z" fill="white"/>
<path d="M73 91C73.5304 91 74.0391 90.7893 74.4142 90.4142C74.7893 90.0391 75 89.5304 75 89C75 88.4696 74.7893 87.9609 74.4142 87.5858C74.0391 87.2107 73.5304 87 73 87C72.4696 87 71.9609 87.2107 71.5858 87.5858C71.2107 87.9609 71 88.4696 71 89C71 89.5304 71.2107 90.0391 71.5858 90.4142C71.9609 90.7893 72.4696 91 73 91ZM81 91C81.5304 91 82.0391 90.7893 82.4142 90.4142C82.7893 90.0391 83 89.5304 83 89C83 88.4696 82.7893 87.9609 82.4142 87.5858C82.0391 87.2107 81.5304 87 81 87C80.4696 87 79.9609 87.2107 79.5858 87.5858C79.2107 87.9609 79 88.4696 79 89C79 89.5304 79.2107 90.0391 79.5858 90.4142C79.9609 90.7893 80.4696 91 81 91ZM91 89C91 89.5304 90.7893 90.0391 90.4142 90.4142C90.0391 90.7893 89.5304 91 89 91C88.4696 91 87.9609 90.7893 87.5858 90.4142C87.2107 90.0391 87 89.5304 87 89C87 88.4696 87.2107 87.9609 87.5858 87.5858C87.9609 87.2107 88.4696 87 89 87C89.5304 87 90.0391 87.2107 90.4142 87.5858C90.7893 87.9609 91 88.4696 91 89ZM70.5 73C70.5 70.2152 71.6062 67.5445 73.5754 65.5754C75.5445 63.6062 78.2152 62.5 81 62.5C83.7848 62.5 86.4555 63.6062 88.4246 65.5754C90.3938 67.5445 91.5 70.2152 91.5 73V77.008C92.634 77.018 93.628 77.044 94.5 77.108V73C94.5 69.4196 93.0777 65.9858 90.5459 63.4541C88.0142 60.9223 84.5804 59.5 81 59.5C77.4196 59.5 73.9858 60.9223 71.4541 63.4541C68.9223 65.9858 67.5 69.4196 67.5 73V77.11C68.4987 77.0442 69.4992 77.0101 70.5 77.008V73Z" fill="white"/>
</svg>
