<svg width="162" height="162" viewBox="0 0 162 162" fill="none" xmlns="http://www.w3.org/2000/svg">
<circle cx="81" cy="81" r="81" fill="#F73849" fill-opacity="0.1"/>
<circle cx="81" cy="81" r="71" fill="#F73849" fill-opacity="0.2"/>
<circle cx="81" cy="81" r="61" fill="#F73849"/>
<path opacity="0.5" d="M99 88.996V76.996C99 71.34 99 68.512 97.242 66.754C95.706 65.218 93.35 65.024 89 65H73C68.65 65.024 66.294 65.218 64.758 66.754C63 68.512 63 71.34 63 76.996V88.996C63 94.654 63 97.482 64.758 99.24C66.514 100.996 69.344 100.996 75 100.996H87C92.656 100.996 95.486 100.996 97.242 99.24C99 97.48 99 94.654 99 88.996Z" fill="white"/>
<path d="M73 64C73 63.2044 73.3161 62.4413 73.8787 61.8787C74.4413 61.3161 75.2044 61 76 61H86C86.7956 61 87.5587 61.3161 88.1213 61.8787C88.6839 62.4413 89 63.2044 89 64V66C89 66.7956 88.6839 67.5587 88.1213 68.1213C87.5587 68.6839 86.7956 69 86 69H76C75.2044 69 74.4413 68.6839 73.8787 68.1213C73.3161 67.5587 73 66.7956 73 66V64Z" fill="white"/>
<path fill-rule="evenodd" clip-rule="evenodd" d="M88.096 77.976C88.3676 78.2667 88.5126 78.6534 88.4991 79.0509C88.4856 79.4485 88.3147 79.8244 88.024 80.096L79.452 88.096C79.1742 88.3556 78.8082 88.4999 78.428 88.4999C78.0479 88.4999 77.6819 88.3556 77.404 88.096L73.976 84.896C73.8299 84.7621 73.7118 84.6006 73.6285 84.4207C73.5452 84.2409 73.4983 84.0463 73.4906 83.8483C73.4829 83.6503 73.5146 83.4526 73.5837 83.2669C73.6529 83.0812 73.7581 82.911 73.8935 82.7661C74.0288 82.6213 74.1914 82.5047 74.3721 82.4232C74.5527 82.3416 74.7477 82.2966 74.9458 82.2908C75.1439 82.285 75.3412 82.3186 75.5263 82.3895C75.7113 82.4604 75.8805 82.5673 76.024 82.704L78.428 84.948L85.976 77.904C86.2667 77.6325 86.6534 77.4875 87.051 77.501C87.4485 77.5145 87.8245 77.6854 88.096 77.976Z" fill="white"/>
</svg>
