<svg width="162" height="162" viewBox="0 0 162 162" fill="none" xmlns="http://www.w3.org/2000/svg">
<circle cx="81" cy="81" r="81" fill="#0EE470" fill-opacity="0.1"/>
<circle cx="81" cy="81" r="71" fill="#0EE470" fill-opacity="0.2"/>
<circle cx="81" cy="81" r="61" fill="#0EE470"/>
<path fill-rule="evenodd" clip-rule="evenodd" d="M79.866 89.928L82.272 87.524L87.524 82.272L89.928 79.866C92.392 77.406 93.622 76.174 93.332 74.85C93.04 73.526 91.406 72.924 88.14 71.72L77.24 67.706C70.722 65.304 67.464 64.1 65.784 65.78C64.104 67.46 65.304 70.72 67.708 77.24L71.72 88.14C72.924 91.406 73.526 93.04 74.85 93.332C76.174 93.622 77.404 92.392 79.866 89.928Z" fill="white"/>
<path opacity="0.5" d="M82.272 87.524L90.148 95.4C90.964 96.216 91.372 96.624 91.828 96.812C92.432 97.064 93.114 97.064 93.72 96.812C94.176 96.624 94.584 96.216 95.4 95.4C96.214 94.584 96.622 94.176 96.812 93.72C97.0624 93.1142 97.0624 92.4338 96.812 91.828C96.622 91.372 96.214 90.964 95.4 90.148L87.522 82.272L82.272 87.524Z" fill="white"/>
</svg>
