<svg width="162" height="162" viewBox="0 0 162 162" fill="none" xmlns="http://www.w3.org/2000/svg">
<circle cx="81" cy="81" r="81" fill="#FF8A00" fill-opacity="0.1"/>
<circle cx="81" cy="81" r="71" fill="#FF8A00" fill-opacity="0.2"/>
<circle cx="81" cy="81" r="61" fill="#FF8A00"/>
<path d="M93 78.706V69H85V78.706C85 79.286 85 79.576 85.19 79.694C85.38 79.81 85.638 79.68 86.158 79.422L88.642 78.178C88.818 78.092 88.906 78.048 89 78.048C89.094 78.048 89.182 78.092 89.358 78.178L91.842 79.422C92.362 79.682 92.622 79.81 92.81 79.694C93 79.574 93 79.286 93 78.706Z" fill="white"/>
<path opacity="0.5" d="M61 70.9C61 69.134 61 68.252 61.14 67.516C61.4384 65.9357 62.2063 64.482 63.3433 63.3446C64.4803 62.2072 65.9338 61.4389 67.514 61.14C68.252 61 69.136 61 70.9 61C71.672 61 72.06 61 72.432 61.034C74.0341 61.1845 75.5536 61.8146 76.792 62.842C77.08 63.08 77.352 63.352 77.9 63.9L79 65C80.632 66.632 81.448 67.448 82.424 67.99C82.9604 68.289 83.5295 68.5252 84.12 68.694C85.196 69 86.35 69 88.656 69H89.404C94.668 69 97.302 69 99.012 70.54C99.17 70.68 99.32 70.83 99.46 70.988C101 72.698 101 75.332 101 80.596V85C101 92.542 101 96.314 98.656 98.656C96.314 101 92.542 101 85 101H77C69.458 101 65.686 101 63.344 98.656C61 96.314 61 92.542 61 85V70.9Z" fill="white"/>
</svg>
