<svg width="120" height="121" viewBox="0 0 120 121" fill="none" xmlns="http://www.w3.org/2000/svg">
<path fill-rule="evenodd" clip-rule="evenodd" d="M29.395 14.895C25 19.285 25 26.36 25 40.5V80.5C25 94.64 25 101.715 29.395 106.105C33.785 110.5 40.86 110.5 55 110.5H65C79.14 110.5 86.215 110.5 90.605 106.105C95 101.715 95 94.64 95 80.5V40.5C95 26.36 95 19.285 90.605 14.895C86.215 10.5 79.14 10.5 65 10.5H55C40.86 10.5 33.785 10.5 29.395 14.895ZM41.25 85.5C41.25 84.5054 41.6451 83.5516 42.3484 82.8483C43.0516 82.1451 44.0054 81.75 45 81.75H60C60.9946 81.75 61.9484 82.1451 62.6516 82.8483C63.3549 83.5516 63.75 84.5054 63.75 85.5C63.75 86.4946 63.3549 87.4484 62.6516 88.1517C61.9484 88.8549 60.9946 89.25 60 89.25H45C44.0054 89.25 43.0516 88.8549 42.3484 88.1517C41.6451 87.4484 41.25 86.4946 41.25 85.5ZM45 61.75C44.0054 61.75 43.0516 62.1451 42.3484 62.8484C41.6451 63.5516 41.25 64.5054 41.25 65.5C41.25 66.4946 41.6451 67.4484 42.3484 68.1516C43.0516 68.8549 44.0054 69.25 45 69.25H75C75.9946 69.25 76.9484 68.8549 77.6516 68.1516C78.3549 67.4484 78.75 66.4946 78.75 65.5C78.75 64.5054 78.3549 63.5516 77.6516 62.8484C76.9484 62.1451 75.9946 61.75 75 61.75H45ZM41.25 45.5C41.25 44.5054 41.6451 43.5516 42.3484 42.8484C43.0516 42.1451 44.0054 41.75 45 41.75H75C75.9946 41.75 76.9484 42.1451 77.6516 42.8484C78.3549 43.5516 78.75 44.5054 78.75 45.5C78.75 46.4946 78.3549 47.4484 77.6516 48.1516C76.9484 48.8549 75.9946 49.25 75 49.25H45C44.0054 49.25 43.0516 48.8549 42.3484 48.1516C41.6451 47.4484 41.25 46.4946 41.25 45.5Z" fill="#D82BCB"/>
<path opacity="0.5" d="M26.175 20.79C25 25.205 25 31.385 25 40.5V80.5C25 89.615 25 95.79 26.175 100.21L25 100.12C20.125 99.64 16.845 98.555 14.395 96.105C10 91.715 10 84.64 10 70.5V50.5C10 36.355 10 29.285 14.395 24.895C16.845 22.445 20.125 21.36 25 20.88L26.175 20.79ZM93.825 100.21C95 95.79 95 89.61 95 80.5V40.5C95 31.385 95 25.205 93.825 20.79L95 20.88C99.875 21.36 103.155 22.445 105.605 24.895C110 29.285 110 36.35 110 50.495V70.495C110 84.645 110 91.71 105.605 96.105C103.155 98.555 99.875 99.64 95 100.12L93.825 100.21Z" fill="#D82BCB"/>
</svg>
