<svg width="44" height="44" viewBox="0 0 44 44" fill="none" xmlns="http://www.w3.org/2000/svg">
<rect width="44" height="44" rx="6" fill="#F2BEF5" fill-opacity="0.31"/>
<path fill-rule="evenodd" clip-rule="evenodd" d="M28 24C28.0004 25.3518 27.6582 26.6816 27.0054 27.8653C26.3526 29.0491 25.4105 30.0481 24.2671 30.7691C23.1236 31.4901 21.8161 31.9097 20.4666 31.9885C19.1171 32.0673 17.7696 31.8029 16.55 31.22C16.1944 31.041 15.7866 30.9949 15.4 31.09L14.173 31.419C13.9527 31.4778 13.7208 31.4776 13.5005 31.4184C13.2803 31.3592 13.0795 31.2432 12.9183 31.0819C12.7571 30.9206 12.6412 30.7197 12.5822 30.4994C12.5231 30.2792 12.5231 30.0473 12.582 29.827L12.91 28.6C13.0051 28.2134 12.959 27.8056 12.78 27.45C12.263 26.3666 11.9964 25.1807 12 23.9802C12.0037 22.7798 12.2774 21.5955 12.801 20.5153C13.3246 19.435 14.0846 18.4864 15.0246 17.7398C15.9647 16.9932 17.0607 16.4678 18.2315 16.2024C19.4022 15.937 20.6177 15.9385 21.7878 16.2068C22.9579 16.475 24.0526 17.0032 24.9908 17.7521C25.929 18.501 26.6867 19.4515 27.2076 20.533C27.7285 21.6146 27.9993 22.7995 28 24ZM16.5 25C16.7652 25 17.0196 24.8946 17.2071 24.7071C17.3946 24.5195 17.5 24.2652 17.5 24C17.5 23.7348 17.3946 23.4804 17.2071 23.2929C17.0196 23.1053 16.7652 23 16.5 23C16.2348 23 15.9804 23.1053 15.7929 23.2929C15.6054 23.4804 15.5 23.7348 15.5 24C15.5 24.2652 15.6054 24.5195 15.7929 24.7071C15.9804 24.8946 16.2348 25 16.5 25ZM20 25C20.2652 25 20.5196 24.8946 20.7071 24.7071C20.8946 24.5195 21 24.2652 21 24C21 23.7348 20.8946 23.4804 20.7071 23.2929C20.5196 23.1053 20.2652 23 20 23C19.7348 23 19.4804 23.1053 19.2929 23.2929C19.1054 23.4804 19 23.7348 19 24C19 24.2652 19.1054 24.5195 19.2929 24.7071C19.4804 24.8946 19.7348 25 20 25ZM23.5 25C23.7652 25 24.0196 24.8946 24.2071 24.7071C24.3946 24.5195 24.5 24.2652 24.5 24C24.5 23.7348 24.3946 23.4804 24.2071 23.2929C24.0196 23.1053 23.7652 23 23.5 23C23.2348 23 22.9804 23.1053 22.7929 23.2929C22.6054 23.4804 22.5 23.7348 22.5 24C22.5 24.2652 22.6054 24.5195 22.7929 24.7071C22.9804 24.8946 23.2348 25 23.5 25Z" fill="#D82BCB"/>
<path opacity="0.6" d="M27.9839 24.508C28.0919 24.4636 28.1986 24.4162 28.3039 24.366C28.5949 24.226 28.9259 24.177 29.2379 24.261L30.2339 24.528C30.4131 24.5762 30.6018 24.5763 30.781 24.5284C30.9603 24.4804 31.1237 24.3861 31.2549 24.2549C31.3861 24.1237 31.4804 23.9603 31.5283 23.7811C31.5762 23.6018 31.5761 23.4132 31.5279 23.234L31.2609 22.238C31.1834 21.9238 31.2206 21.5922 31.3659 21.303C31.7315 20.5206 31.9374 19.6733 31.9718 18.8105C32.0062 17.9476 31.8683 17.0866 31.5662 16.2776C31.2641 15.4686 30.8038 14.728 30.2123 14.0989C29.6207 13.4698 28.9098 12.9649 28.1209 12.6137C27.332 12.2624 26.4811 12.0719 25.6178 12.0532C24.7544 12.0345 23.896 12.188 23.0927 12.5047C22.2894 12.8215 21.5572 13.2951 20.939 13.898C20.3207 14.5009 19.8288 15.2209 19.4919 16.016C20.626 15.9437 21.7625 16.1138 22.8257 16.515C23.8889 16.9162 24.8545 17.5394 25.658 18.3429C26.4616 19.1465 27.0847 20.112 27.4859 21.1752C27.8872 22.2384 28.0573 23.3749 27.9849 24.509" fill="#D82BCB"/>
</svg>
