<svg width="44" height="44" viewBox="0 0 44 44" fill="none" xmlns="http://www.w3.org/2000/svg">
<rect width="44" height="44" rx="6" fill="#F2BEF5" fill-opacity="0.31"/>
<path opacity="0.4" d="M25 19C26.6569 19 28 17.6569 28 16C28 14.3431 26.6569 13 25 13C23.3431 13 22 14.3431 22 16C22 17.6569 23.3431 19 25 19Z" fill="#D82BCB"/>
<path opacity="0.4" d="M26 30C28.7614 30 31 28.6569 31 27C31 25.3431 28.7614 24 26 24C23.2386 24 21 25.3431 21 27C21 28.6569 23.2386 30 26 30Z" fill="#D82BCB"/>
<path d="M19.001 20C21.2101 20 23.001 18.2091 23.001 16C23.001 13.7909 21.2101 12 19.001 12C16.7918 12 15.001 13.7909 15.001 16C15.001 18.2091 16.7918 20 19.001 20Z" fill="#D82BCB"/>
<path d="M19.001 31.001C22.867 31.001 26.001 29.2101 26.001 27.001C26.001 24.7918 22.867 23.001 19.001 23.001C15.135 23.001 12.001 24.7918 12.001 27.001C12.001 29.2101 15.135 31.001 19.001 31.001Z" fill="#D82BCB"/>
</svg>
