<svg width="44" height="44" viewBox="0 0 44 44" fill="none" xmlns="http://www.w3.org/2000/svg">
<rect width="44" height="44" rx="6" fill="#F2BEF5" fill-opacity="0.31"/>
<path opacity="0.5" d="M22 32C27.523 32 32 27.523 32 22C32 16.477 27.523 12 22 12C16.477 12 12 16.477 12 22C12 23.6 12.376 25.112 13.043 26.453C13.221 26.809 13.28 27.216 13.177 27.601L12.582 29.827C12.5231 30.0473 12.5231 30.2792 12.5822 30.4995C12.6412 30.7197 12.7571 30.9206 12.9183 31.0819C13.0795 31.2432 13.2803 31.3593 13.5005 31.4184C13.7208 31.4776 13.9527 31.4778 14.173 31.419L16.399 30.823C16.7854 30.7258 17.194 30.7731 17.548 30.956C18.9309 31.6446 20.4551 32.0021 22 32Z" fill="#D82BCB"/>
<path d="M17.5 21.11C17.5 22.478 18.819 23.914 20.029 24.943C20.852 25.643 21.264 25.993 22 25.993C22.736 25.993 23.148 25.643 23.971 24.943C25.181 23.913 26.5 22.478 26.5 21.109C26.5 18.432 24.025 17.433 22 19.501C19.975 17.433 17.5 18.433 17.5 21.11Z" fill="#D82BCB"/>
</svg>
