<svg width="44" height="44" viewBox="0 0 44 44" fill="none" xmlns="http://www.w3.org/2000/svg">
<rect width="44" height="44" rx="6" fill="#F2BEF5" fill-opacity="0.31"/>
<path opacity="0.5" fill-rule="evenodd" clip-rule="evenodd" d="M16.5 11.75C16.5 11.5511 16.421 11.3603 16.2803 11.2197C16.1397 11.079 15.9489 11 15.75 11C15.5511 11 15.3603 11.079 15.2197 11.2197C15.079 11.3603 15 11.5511 15 11.75V31.75C15 31.9489 15.079 32.1397 15.2197 32.2803C15.3603 32.421 15.5511 32.5 15.75 32.5C15.9489 32.5 16.1397 32.421 16.2803 32.2803C16.421 32.1397 16.5 31.9489 16.5 31.75V13.6V11.75Z" fill="#D82BCB"/>
<path d="M23.558 13.873L23.145 13.708C21.5822 13.083 19.8714 12.9259 18.221 13.256L16.5 13.6V23.6L18.22 23.256C19.8708 22.9257 21.5819 23.0828 23.145 23.708C24.8386 24.3853 26.7025 24.5116 28.472 24.069L28.572 24.044C28.7082 24.0098 28.8345 23.9442 28.9408 23.8524C29.0471 23.7607 29.1304 23.6453 29.1842 23.5156C29.2379 23.3858 29.2606 23.2453 29.2503 23.1053C29.24 22.9652 29.1971 22.8295 29.125 22.709L27.565 20.108C27.223 19.538 27.052 19.254 27.012 18.945C26.9951 18.8156 26.9951 18.6845 27.012 18.555C27.052 18.246 27.223 17.961 27.565 17.392L28.843 15.262C28.9174 15.1382 28.9533 14.9951 28.9463 14.8509C28.9393 14.7067 28.8897 14.5677 28.8038 14.4517C28.7178 14.3356 28.5994 14.2477 28.4634 14.199C28.3274 14.1503 28.1801 14.143 28.04 14.178C26.5511 14.55 24.9828 14.4433 23.558 13.873Z" fill="#D82BCB"/>
</svg>
