<svg width="44" height="44" viewBox="0 0 44 44" fill="none" xmlns="http://www.w3.org/2000/svg">
<rect width="44" height="44" rx="6" fill="#F2BEF5" fill-opacity="0.31"/>
<path d="M16 18C16 15.172 16 13.757 16.879 12.879C17.757 12 19.172 12 22 12C24.828 12 26.243 12 27.121 12.879C28 13.757 28 15.172 28 18V26C28 28.828 28 30.243 27.121 31.121C26.243 32 24.828 32 22 32C19.172 32 17.757 32 16.879 31.121C16 30.243 16 28.828 16 26V18Z" fill="#D82BCB"/>
<path opacity="0.5" d="M16.141 14.5C16 15.343 16 16.462 16 18V26C16 27.538 16 28.657 16.141 29.5H16C14.6 29.5 13.9 29.5 13.365 29.227C12.8945 28.9875 12.5119 28.6053 12.272 28.135C12 27.6 12 26.9 12 25.5V18.5C12 17.1 12 16.4 12.272 15.865C12.5117 15.3944 12.8944 15.0117 13.365 14.772C13.9 14.5 14.6 14.5 16 14.5H16.141ZM27.859 14.5C28 15.343 28 16.462 28 18V26C28 27.538 28 28.657 27.859 29.5H28C29.4 29.5 30.1 29.5 30.635 29.227C31.1051 28.9874 31.4874 28.6051 31.727 28.135C32 27.6 32 26.9 32 25.5V18.5C32 17.1 32 16.4 31.727 15.865C31.4875 15.3945 31.1053 15.0119 30.635 14.772C30.1 14.5 29.4 14.5 28 14.5H27.859Z" fill="#D82BCB"/>
</svg>
