<svg width="44" height="44" viewBox="0 0 44 44" fill="none" xmlns="http://www.w3.org/2000/svg">
<rect width="44" height="44" rx="6" fill="#F2BEF5" fill-opacity="0.31"/>
<path opacity="0.5" d="M12 22C12 23.64 12.425 24.191 13.275 25.296C14.972 27.5 17.818 30 22 30C26.182 30 29.028 27.5 30.725 25.296C31.575 24.192 32 23.639 32 22C32 20.36 31.575 19.809 30.725 18.704C29.028 16.5 26.182 14 22 14C17.818 14 14.972 16.5 13.275 18.704C12.425 19.81 12 20.361 12 22Z" fill="#D82BCB"/>
<path fill-rule="evenodd" clip-rule="evenodd" d="M18.25 22C18.25 21.0054 18.6451 20.0516 19.3483 19.3483C20.0516 18.6451 21.0054 18.25 22 18.25C22.9946 18.25 23.9484 18.6451 24.6517 19.3483C25.3549 20.0516 25.75 21.0054 25.75 22C25.75 22.9946 25.3549 23.9484 24.6517 24.6517C23.9484 25.3549 22.9946 25.75 22 25.75C21.0054 25.75 20.0516 25.3549 19.3483 24.6517C18.6451 23.9484 18.25 22.9946 18.25 22ZM19.75 22C19.75 21.4033 19.9871 20.831 20.409 20.409C20.831 19.9871 21.4033 19.75 22 19.75C22.5967 19.75 23.169 19.9871 23.591 20.409C24.0129 20.831 24.25 21.4033 24.25 22C24.25 22.5967 24.0129 23.169 23.591 23.591C23.169 24.0129 22.5967 24.25 22 24.25C21.4033 24.25 20.831 24.0129 20.409 23.591C19.9871 23.169 19.75 22.5967 19.75 22Z" fill="#D82BCB"/>
</svg>
