<svg width="24" height="24" viewBox="0 0 24 24" fill="none" xmlns="http://www.w3.org/2000/svg">
<path opacity="0.5" d="M10.5609 2.25C10.4479 2.25 10.3599 2.25 10.2759 2.255C9.75634 2.28658 9.25641 2.46498 8.83422 2.76946C8.41202 3.07393 8.08491 3.49197 7.89091 3.975C7.85891 4.054 7.83091 4.139 7.79191 4.253C7.70891 4.477 7.51791 4.732 7.24991 4.936C7.21991 4.959 7.18991 4.98 7.15991 5H9.10191C9.13091 4.94 9.15791 4.88 9.18191 4.818L9.18291 4.815L9.18691 4.805L9.19191 4.793L9.19691 4.781L9.20091 4.771L9.20191 4.766L9.20691 4.754L9.20991 4.742L9.21291 4.736L9.21491 4.728L9.21691 4.721L9.21891 4.715C9.25891 4.599 9.27091 4.562 9.28191 4.534C9.37013 4.31428 9.51895 4.12413 9.71103 3.98568C9.90311 3.84724 10.1306 3.7662 10.3669 3.752C10.3989 3.75 10.4379 3.75 10.5819 3.75H13.4189C13.5629 3.75 13.6019 3.75 13.6349 3.752C14.1169 3.782 14.5389 4.086 14.7189 4.534C14.7299 4.562 14.7419 4.597 14.7819 4.715L14.7839 4.721L14.7859 4.728L14.7889 4.736L14.7909 4.742L14.7939 4.754L14.7989 4.766L14.7999 4.771L14.8039 4.781L14.8089 4.793L14.8129 4.805L14.8179 4.815L14.8189 4.818C14.8429 4.88 14.8689 4.94 14.8989 5H16.8409C16.8109 4.98 16.7809 4.959 16.7509 4.936C16.4829 4.732 16.2919 4.476 16.2089 4.253L16.2059 4.243C16.1699 4.136 16.1419 4.052 16.1109 3.974C15.9167 3.49101 15.5894 3.07308 15.167 2.76878C14.7446 2.46448 14.2445 2.28632 13.7249 2.255C13.63 2.25052 13.5349 2.24885 13.4399 2.25H10.5609Z" fill="#0EA4E4"/>
<path fill-rule="evenodd" clip-rule="evenodd" d="M17.192 5H6.808C5.12 5 4.277 5 3.633 5.33C3.07273 5.61688 2.61688 6.07273 2.33 6.633C2 7.277 2 8.12 2 9.808C2 10.237 2 10.451 2.073 10.632C2.13693 10.79 2.2402 10.9291 2.373 11.036C2.526 11.158 2.731 11.219 3.143 11.343L8.5 12.95V14.163C8.5 14.928 8.96 15.634 9.687 15.93L10.247 16.157C11.371 16.614 12.629 16.614 13.753 16.157L14.313 15.93C14.6642 15.787 14.9647 15.5424 15.1762 15.2276C15.3876 14.9129 15.5004 14.5422 15.5 14.163V12.95L20.858 11.343C21.268 11.219 21.474 11.158 21.626 11.036C21.7588 10.9291 21.8621 10.79 21.926 10.632C22 10.452 22 10.237 22 9.808C22 8.12 22 7.277 21.67 6.633C21.3831 6.07273 20.9273 5.61688 20.367 5.33C19.723 5 18.88 5 17.192 5ZM13.6 12H10.4C10.18 12 10 12.182 10 12.406V14.163C10 14.329 10.1 14.478 10.251 14.54L10.811 14.768C11.575 15.078 12.425 15.078 13.188 14.768L13.748 14.54C13.8227 14.5092 13.8865 14.457 13.9314 14.3898C13.9762 14.3227 14.0001 14.2437 14 14.163V12.406C14.0004 12.3531 13.9904 12.3006 13.9705 12.2515C13.9506 12.2025 13.9212 12.1579 13.8841 12.1202C13.8469 12.0825 13.8027 12.0524 13.754 12.0318C13.7053 12.0112 13.6529 12.0004 13.6 12Z" fill="#0EA4E4"/>
<path opacity="0.5" d="M3 11.3L3.142 11.343L8.5 12.95V14.163C8.5 14.928 8.96 15.634 9.687 15.93L10.247 16.157C11.371 16.614 12.629 16.614 13.753 16.157L14.313 15.93C14.6642 15.787 14.9647 15.5424 15.1762 15.2276C15.3876 14.9129 15.5004 14.5422 15.5 14.163V12.95L20.858 11.343L21 11.3V12.3C21 15.975 20.965 19.688 19.682 20.828C18.364 22 16.242 22 12 22C7.757 22 5.636 22 4.318 20.828C3.035 19.688 3.001 15.975 3 12.3V11.3Z" fill="#0EA4E4"/>
</svg>
