<svg width="24" height="24" viewBox="0 0 24 24" fill="none" xmlns="http://www.w3.org/2000/svg">
<path d="M12 10C14.2091 10 16 8.20914 16 6C16 3.79086 14.2091 2 12 2C9.79086 2 8 3.79086 8 6C8 8.20914 9.79086 10 12 10Z" fill="#D82BCB"/>
<path opacity="0.5" d="M18.095 15.031C17.67 15 17.149 15 16.5 15C14.85 15 14.025 15 13.513 15.513C13 16.025 13 16.85 13 18.5C13 19.666 13 20.42 13.181 20.943C12.797 20.981 12.403 21 12 21C8.134 21 5 19.21 5 17C5 14.79 8.134 13 12 13C14.613 13 16.892 13.818 18.095 15.031Z" fill="#D82BCB"/>
<path fill-rule="evenodd" clip-rule="evenodd" d="M13.513 21.487C14.025 22 14.85 22 16.5 22C18.15 22 18.975 22 19.487 21.487C20 20.975 20 20.15 20 18.5C20 16.85 20 16.025 19.487 15.513C18.975 15 18.15 15 16.5 15C14.85 15 14.025 15 13.513 15.513C13 16.025 13 16.85 13 18.5C13 20.15 13 20.975 13.513 21.487ZM15.527 19.977C14.825 19.474 14 18.883 14 17.86C14 16.73 15.375 15.929 16.5 17.015C17.625 15.928 19 16.73 19 17.86C19 18.883 18.175 19.474 17.473 19.977L17.26 20.131C17 20.321 16.75 20.5 16.5 20.5C16.25 20.5 16 20.32 15.74 20.13L15.527 19.977Z" fill="#D82BCB"/>
</svg>
