<svg width="24" height="24" viewBox="0 0 24 24" fill="none" xmlns="http://www.w3.org/2000/svg">
<path d="M7 4.83002C7 6.37702 8.726 8.00802 10.15 9.09002C10.949 9.69602 11.348 10 12 10C12.652 10 13.051 9.69602 13.85 9.09002C15.274 8.00702 17 6.37602 17 4.83002C17 2.04002 14.25 0.997015 12 3.15302C9.75 0.997015 7 2.04002 7 4.83002Z" fill="#FFD600"/>
<path opacity="0.5" d="M6.26 21.388H6C5.057 21.388 4.586 21.388 4.293 21.095C4 20.804 4 20.332 4 19.389V18.277C4 17.759 4 17.5 4.133 17.268C4.266 17.037 4.467 16.92 4.869 16.686C7.515 15.147 11.272 14.281 13.779 15.776C13.947 15.877 14.099 15.999 14.229 16.144C14.3633 16.2912 14.4668 16.4638 14.5333 16.6516C14.5998 16.8394 14.628 17.0387 14.6163 17.2376C14.6045 17.4365 14.553 17.631 14.4649 17.8097C14.3767 17.9884 14.2537 18.1476 14.103 18.278C13.9828 18.3922 13.8361 18.4747 13.676 18.518C13.796 18.504 13.911 18.488 14.021 18.471C14.932 18.326 15.697 17.838 16.397 17.309L18.205 15.944C18.5275 15.7094 18.9161 15.583 19.315 15.583C19.7139 15.583 20.1024 15.7094 20.425 15.944C20.998 16.377 21.174 17.09 20.811 17.672C20.388 18.35 19.792 19.217 19.22 19.747C18.647 20.277 17.794 20.751 17.098 21.087C16.326 21.46 15.474 21.674 14.607 21.815C12.849 22.099 11.017 22.055 9.277 21.697C8.28429 21.4929 7.27348 21.3887 6.26 21.388Z" fill="#FFD600"/>
</svg>
