<svg width="56" height="56" viewBox="0 0 56 56" fill="none" xmlns="http://www.w3.org/2000/svg">
<path opacity="0.4" fill-rule="evenodd" clip-rule="evenodd" d="M8.08275 47.9173C11.5034 51.3333 17.0007 51.3333 28.0001 51.3333C38.9994 51.3333 44.4991 51.3333 47.9151 47.915C51.3334 44.5013 51.3334 38.9993 51.3334 28C51.3334 26.4413 51.3334 24.99 51.3241 23.6436C51.3194 22.9926 51.3171 22.6683 51.1911 22.148C51.124 21.8043 51.0044 21.4729 50.8364 21.1656C49.8861 19.2992 48.3693 17.7816 46.5034 16.8303C45.5421 16.3403 44.3568 16.0533 42.5204 15.904C42.1531 15.8725 41.7851 15.8491 41.4168 15.834L37.9168 15.7546V25.2186C37.9168 26.376 37.9168 27.1693 37.8818 27.762C37.8468 28.3733 37.7814 28.5623 37.7651 28.5973C37.599 28.9719 37.3067 29.2764 36.9391 29.4576C36.5716 29.6389 36.1521 29.6853 35.7537 29.589C35.7164 29.5796 35.5274 29.5143 35.0188 29.169C34.3274 28.6788 33.649 28.1708 32.9841 27.6453L32.8278 27.524C31.9644 26.859 31.2901 26.341 30.5574 26.0213C29.7504 25.6706 28.88 25.4897 28.0001 25.4897C27.1202 25.4897 26.2497 25.6706 25.4428 26.0213C24.7101 26.341 24.0357 26.859 23.1724 27.524L23.0161 27.6453C22.0991 28.3523 21.4691 28.8353 20.9791 29.169C20.4727 29.5143 20.2837 29.5796 20.2464 29.589C19.8481 29.6853 19.4286 29.6389 19.061 29.4576C18.6935 29.2764 18.4012 28.9719 18.2351 28.5973C18.2187 28.5623 18.1534 28.3733 18.1184 27.762C18.0852 26.9146 18.0736 26.0666 18.0834 25.2186V15.7546L14.5834 15.8316C14.1961 15.8503 13.8297 15.8736 13.4797 15.9016C11.6434 16.0533 10.4581 16.3426 9.49908 16.8303C7.61771 17.7891 6.09153 19.3235 5.14275 21.21C5.00275 21.49 4.93275 21.63 4.80908 22.148C4.68308 22.666 4.68075 22.9926 4.67608 23.6436C4.66675 24.9923 4.66675 26.4413 4.66675 28C4.66675 38.9993 4.66675 44.5013 8.08275 47.9173Z" fill="#0EE470"/>
<path d="M18.0833 15.7546V25.2186C18.0833 26.376 18.0833 27.1693 18.1183 27.762C18.1533 28.3733 18.2186 28.5623 18.2349 28.5973C18.401 28.9719 18.6933 29.2764 19.0609 29.4576C19.4284 29.6389 19.8479 29.6853 20.2463 29.589C20.2836 29.5796 20.4726 29.5143 20.9789 29.169C21.4689 28.8353 22.0989 28.3523 23.0159 27.6453L23.1723 27.524C24.0356 26.859 24.7099 26.341 25.4426 26.0213C26.2496 25.6706 27.12 25.4897 27.9999 25.4897C28.8798 25.4897 29.7503 25.6706 30.5573 26.0213C31.2899 26.341 31.9643 26.8613 32.8276 27.5263L32.9839 27.6453C33.9009 28.3523 34.5309 28.8353 35.0209 29.169C35.5273 29.5143 35.7163 29.5796 35.7536 29.589C36.1519 29.6853 36.5714 29.6389 36.939 29.4576C37.3065 29.2764 37.5988 28.9719 37.7649 28.5973C37.7813 28.5623 37.8466 28.3733 37.8816 27.762C37.9166 27.1693 37.9166 26.376 37.9166 25.2186V15.7546H18.0833Z" fill="#0EE470"/>
<path opacity="0.2" d="M47.9151 8.08275C44.4991 4.66675 38.9994 4.66675 28.0001 4.66675C17.0007 4.66675 11.4987 4.66675 8.08275 8.08275C6.28608 9.87942 5.43675 12.2477 5.03075 15.6894L4.75308 22.4047C4.76941 22.3231 4.78575 22.2391 4.80908 22.1481C4.87277 21.8205 4.98524 21.5043 5.14275 21.2101L5.16608 21.1634C6.11655 19.2991 7.63242 17.7832 9.49675 16.8327C10.4557 16.3427 11.6411 16.0557 13.4774 15.9064C13.8274 15.8784 14.1937 15.8551 14.5811 15.8364L18.0811 15.7571V24.5001H37.9144V15.7547L41.4144 15.8317C41.8017 15.8527 42.1681 15.8761 42.5181 15.9017C44.3544 16.0534 45.5397 16.3427 46.5011 16.8304C48.367 17.7817 49.8838 19.2993 50.8341 21.1657L50.8574 21.2101L50.9647 21.4341V15.6871C50.5587 12.2477 49.7094 9.87708 47.9151 8.08275ZM4.67141 24.5001V24.3694L4.66675 24.5001H4.67141Z" fill="#0EE470"/>
</svg>
