<svg width="56" height="56" viewBox="0 0 56 56" fill="none" xmlns="http://www.w3.org/2000/svg">
<path opacity="0.5" d="M2.33325 27.9999C2.33325 15.9016 2.33325 9.85125 6.08992 6.08992C9.85358 2.33325 15.9039 2.33325 27.9999 2.33325C40.0983 2.33325 46.1486 2.33325 49.9099 6.08992C53.6666 9.85358 53.6666 15.9039 53.6666 27.9999C53.6666 40.0983 53.6666 46.1486 49.9099 49.9099C46.1462 53.6666 40.0959 53.6666 27.9999 53.6666C15.9016 53.6666 9.85125 53.6666 6.08992 49.9099C2.33325 46.1462 2.33325 40.0959 2.33325 27.9999Z" fill="#FF8A00"/>
<path d="M32.4941 33.3712C33.0657 32.9256 33.5837 32.4076 34.6221 31.3692L47.5487 18.4426C47.8614 18.1299 47.7191 17.5909 47.3014 17.4462C45.2798 16.7398 43.4448 15.5837 41.9347 14.0652C40.4154 12.5554 39.2586 10.7204 38.5514 8.69858C38.4091 8.27858 37.8701 8.13858 37.5574 8.45125L24.6307 21.3779C23.5924 22.4139 23.0744 22.9342 22.6287 23.5059C22.1023 24.1798 21.6509 24.9089 21.2824 25.6806C20.9721 26.3339 20.7387 27.0316 20.2767 28.4222L19.6771 30.2189L18.7227 33.0796L17.8314 35.7582C17.7201 36.0937 17.7042 36.4535 17.7856 36.7975C17.8669 37.1414 18.0423 37.456 18.2921 37.706C18.5419 37.9561 18.8563 38.1318 19.2002 38.2134C19.544 38.2951 19.9038 38.2796 20.2394 38.1686L22.9227 37.2749L25.7787 36.3229L27.5754 35.7233C28.9684 35.2589 29.6637 35.0279 30.3171 34.7152C31.0895 34.3479 31.8196 33.8972 32.4941 33.3712ZM51.5971 14.3966C52.9223 13.0716 53.667 11.2745 53.6672 9.40057C53.6674 7.52662 52.9232 5.72932 51.5982 4.40408C50.2733 3.07884 48.4762 2.3342 46.6022 2.33398C44.7283 2.33377 42.931 3.07798 41.6057 4.40292L41.1881 4.81825C40.9909 5.01355 40.8441 5.25384 40.7604 5.51845C40.6766 5.78306 40.6585 6.06406 40.7074 6.33725C40.7704 6.68725 40.8871 7.20058 41.0994 7.81425C41.6717 9.45192 42.6084 10.9383 43.8387 12.1612C45.061 13.3914 46.5465 14.328 48.1834 14.9006C48.7971 15.1106 49.3104 15.2296 49.6604 15.2926C50.2204 15.3929 50.7804 15.2109 51.1817 14.8096L51.5971 14.3966Z" fill="#FF8A00"/>
</svg>
