<svg width="56" height="56" viewBox="0 0 56 56" fill="none" xmlns="http://www.w3.org/2000/svg">
<path opacity="0.3" d="M38.4323 38.4324C49.9566 26.908 54.6256 12.8964 48.8646 7.13536C43.1036 1.37203 29.0919 6.04336 17.5676 17.5654C6.04326 29.092 1.37426 43.1037 7.13526 48.8647C12.8986 54.628 26.9103 49.9544 38.4323 38.4324Z" fill="#D82BCB"/>
<path opacity="0.3" d="M17.5676 38.4324C6.04326 26.9104 1.37426 12.8964 7.13526 7.13536C12.8963 1.37203 26.9079 6.04336 38.4323 17.5654C49.9566 29.092 54.6256 43.1037 48.8646 48.8647C43.1013 54.628 29.0896 49.9544 17.5676 38.4324Z" fill="#D82BCB"/>
<path d="M33.8334 28.0001C33.8334 29.5472 33.2188 31.0309 32.1249 32.1249C31.0309 33.2188 29.5472 33.8334 28.0001 33.8334C26.453 33.8334 24.9693 33.2188 23.8753 32.1249C22.7813 31.0309 22.1667 29.5472 22.1667 28.0001C22.1667 26.453 22.7813 24.9693 23.8753 23.8753C24.9693 22.7813 26.453 22.1667 28.0001 22.1667C29.5472 22.1667 31.0309 22.7813 32.1249 23.8753C33.2188 24.9693 33.8334 26.453 33.8334 28.0001Z" fill="#D82BCB"/>
</svg>
